<svg xmlns="http://www.w3.org/2000/svg" viewBox="0 0 512 512" width="512" height="512"><rect width="512" height="512" rx="80" fill="#111113"/><rect x="214.8" y="153.1" width="8.4" height="8.4" rx="8" fill="#ffffff" opacity="0.85"/><rect x="214.8" y="165.4" width="8.4" height="8.4" rx="8" fill="#ffffff" opacity="0.85"/><rect x="227.1" y="165.4" width="8.4" height="8.4" rx="8" fill="#ffffff" opacity="0.85"/><rect x="202.4" y="177.7" width="8.4" height="8.4" rx="8" fill="#ffffff" opacity="0.85"/><rect x="214.8" y="177.7" width="8.4" height="8.4" rx="8" fill="#ffffff" opacity="0.85"/><rect x="227.1" y="177.7" width="8.4" height="8.4" rx="8" fill="#ffffff" opacity="0.85"/><rect x="202.4" y="190.1" width="8.4" height="8.4" rx="8" fill="#ffffff" opacity="0.85"/><rect x="214.8" y="190.1" width="8.4" height="8.4" rx="8" fill="#ffffff" opacity="0.85"/><rect x="227.1" y="190.1" width="8.4" height="8.4" rx="8" fill="#ffffff" opacity="0.85"/><rect x="239.5" y="190.1" width="8.4" height="8.4" rx="8" fill="#ffffff" opacity="0.85"/><rect x="264.1" y="190.1" width="8.4" height="8.4" rx="8" fill="#ffffff" opacity="0.85"/><rect x="350.5" y="190.1" width="8.4" height="8.4" rx="8" fill="#ffffff" opacity="0.85"/><rect x="399.9" y="190.1" width="8.4" height="8.4" rx="8" fill="#ffffff" opacity="0.85"/><rect x="202.4" y="202.4" width="8.4" height="8.4" rx="8" fill="#ffffff" opacity="0.85"/><rect x="214.8" y="202.4" width="8.4" height="8.4" rx="8" fill="#ffffff" opacity="0.85"/><rect x="227.1" y="202.4" width="8.4" height="8.4" rx="8" fill="#ffffff" opacity="0.85"/><rect x="239.5" y="202.4" width="8.4" height="8.4" rx="8" fill="#ffffff" opacity="0.85"/><rect x="264.1" y="202.4" width="8.4" height="8.4" rx="8" fill="#ffffff" opacity="0.85"/><rect x="276.5" y="202.4" width="8.4" height="8.4" rx="8" fill="#ffffff" opacity="0.85"/><rect x="338.2" y="202.4" width="8.4" height="8.4" rx="8" fill="#ffffff" opacity="0.85"/><rect x="350.5" y="202.4" width="8.4" height="8.4" rx="8" fill="#ffffff" opacity="0.85"/><rect x="362.9" y="202.4" width="8.4" height="8.4" rx="8" fill="#ffffff" opacity="0.85"/><rect x="387.6" y="202.4" width="8.4" height="8.4" rx="8" fill="#ffffff" opacity="0.85"/><rect x="399.9" y="202.4" width="8.4" height="8.4" rx="8" fill="#ffffff" opacity="0.85"/><rect x="140.7" y="214.8" width="8.4" height="8.4" rx="8" fill="#ffffff" opacity="0.85"/><rect x="202.4" y="214.8" width="8.4" height="8.4" rx="8" fill="#ffffff" opacity="0.85"/><rect x="214.8" y="214.8" width="8.4" height="8.4" rx="8" fill="#ffffff" opacity="0.85"/><rect x="227.1" y="214.8" width="8.4" height="8.4" rx="8" fill="#ffffff" opacity="0.85"/><rect x="239.5" y="214.8" width="8.4" height="8.4" rx="8" fill="#ffffff" opacity="0.85"/><rect x="251.8" y="214.8" width="8.4" height="8.4" rx="8" fill="#ffffff" opacity="0.85"/><rect x="264.1" y="214.8" width="8.4" height="8.4" rx="8" fill="#ffffff" opacity="0.85"/><rect x="276.5" y="214.8" width="8.4" height="8.4" rx="8" fill="#ffffff" opacity="0.85"/><rect x="338.2" y="214.8" width="8.4" height="8.4" rx="8" fill="#ffffff" opacity="0.85"/><rect x="350.5" y="214.8" width="8.4" height="8.4" rx="8" fill="#ffffff" opacity="0.85"/><rect x="362.9" y="214.8" width="8.4" height="8.4" rx="8" fill="#ffffff" opacity="0.85"/><rect x="375.2" y="214.8" width="8.4" height="8.4" rx="8" fill="#ffffff" opacity="0.85"/><rect x="387.6" y="214.8" width="8.4" height="8.4" rx="8" fill="#ffffff" opacity="0.85"/><rect x="399.9" y="214.8" width="8.4" height="8.4" rx="8" fill="#ffffff" opacity="0.85"/><rect x="412.3" y="214.8" width="8.4" height="8.4" rx="8" fill="#ffffff" opacity="0.85"/><rect x="91.3" y="227.1" width="8.4" height="8.4" rx="8" fill="#ffffff" opacity="0.85"/><rect x="128.4" y="227.1" width="8.4" height="8.4" rx="8" fill="#ffffff" opacity="0.85"/><rect x="140.7" y="227.1" width="8.4" height="8.4" rx="8" fill="#ffffff" opacity="0.85"/><rect x="153.1" y="227.1" width="8.4" height="8.4" rx="8" fill="#ffffff" opacity="0.85"/><rect x="190.1" y="227.1" width="8.4" height="8.4" rx="8" fill="#ffffff" opacity="0.85"/><rect x="202.4" y="227.1" width="8.4" height="8.4" rx="8" fill="#ffffff" opacity="0.85"/><rect x="214.8" y="227.1" width="8.4" height="8.4" rx="8" fill="#ffffff" opacity="0.85"/><rect x="227.1" y="227.1" width="8.4" height="8.4" rx="8" fill="#ffffff" opacity="0.85"/><rect x="239.5" y="227.1" width="8.4" height="8.4" rx="8" fill="#ffffff" opacity="0.85"/><rect x="251.8" y="227.1" width="8.4" height="8.4" rx="8" fill="#ffffff" opacity="0.85"/><rect x="264.1" y="227.1" width="8.4" height="8.4" rx="8" fill="#ffffff" opacity="0.85"/><rect x="276.5" y="227.1" width="8.4" height="8.4" rx="8" fill="#ffffff" opacity="0.85"/><rect x="338.2" y="227.1" width="8.4" height="8.4" rx="8" fill="#ffffff" opacity="0.85"/><rect x="350.5" y="227.1" width="8.4" height="8.4" rx="8" fill="#ffffff" opacity="0.85"/><rect x="362.9" y="227.1" width="8.4" height="8.4" rx="8" fill="#ffffff" opacity="0.85"/><rect x="375.2" y="227.1" width="8.4" height="8.4" rx="8" fill="#ffffff" opacity="0.85"/><rect x="387.6" y="227.1" width="8.4" height="8.4" rx="8" fill="#ffffff" opacity="0.85"/><rect x="399.9" y="227.1" width="8.4" height="8.4" rx="8" fill="#ffffff" opacity="0.85"/><rect x="412.3" y="227.1" width="8.4" height="8.4" rx="8" fill="#ffffff" opacity="0.85"/><rect x="91.3" y="239.5" width="8.4" height="8.4" rx="8" fill="#ffffff" opacity="0.85"/><rect x="103.7" y="239.5" width="8.4" height="8.4" rx="8" fill="#ffffff" opacity="0.85"/><rect x="128.4" y="239.5" width="8.4" height="8.4" rx="8" fill="#ffffff" opacity="0.85"/><rect x="140.7" y="239.5" width="8.4" height="8.4" rx="8" fill="#ffffff" opacity="0.85"/><rect x="153.1" y="239.5" width="8.4" height="8.4" rx="8" fill="#ffffff" opacity="0.85"/><rect x="190.1" y="239.5" width="8.4" height="8.4" rx="8" fill="#ffffff" opacity="0.85"/><rect x="202.4" y="239.5" width="8.4" height="8.4" rx="8" fill="#ffffff" opacity="0.85"/><rect x="214.8" y="239.5" width="8.4" height="8.4" rx="8" fill="#ffffff" opacity="0.85"/><rect x="227.1" y="239.5" width="8.4" height="8.4" rx="8" fill="#ffffff" opacity="0.85"/><rect x="239.5" y="239.5" width="8.4" height="8.4" rx="8" fill="#ffffff" opacity="0.85"/><rect x="251.8" y="239.5" width="8.4" height="8.4" rx="8" fill="#ffffff" opacity="0.85"/><rect x="264.1" y="239.5" width="8.4" height="8.4" rx="8" fill="#ffffff" opacity="0.85"/><rect x="276.5" y="239.5" width="8.4" height="8.4" rx="8" fill="#ffffff" opacity="0.85"/><rect x="288.8" y="239.5" width="8.4" height="8.4" rx="8" fill="#ffffff" opacity="0.85"/><rect x="325.9" y="239.5" width="8.4" height="8.4" rx="8" fill="#ffffff" opacity="0.85"/><rect x="338.2" y="239.5" width="8.4" height="8.4" rx="8" fill="#ffffff" opacity="0.85"/><rect x="350.5" y="239.5" width="8.4" height="8.4" rx="8" fill="#ffffff" opacity="0.85"/><rect x="362.9" y="239.5" width="8.4" height="8.4" rx="8" fill="#ffffff" opacity="0.85"/><rect x="375.2" y="239.5" width="8.4" height="8.4" rx="8" fill="#ffffff" opacity="0.85"/><rect x="387.6" y="239.5" width="8.4" height="8.4" rx="8" fill="#ffffff" opacity="0.85"/><rect x="399.9" y="239.5" width="8.4" height="8.4" rx="8" fill="#ffffff" opacity="0.85"/><rect x="412.3" y="239.5" width="8.4" height="8.4" rx="8" fill="#ffffff" opacity="0.85"/><rect x="79.0" y="251.8" width="8.4" height="8.4" rx="8" fill="#ffffff" opacity="0.85"/><rect x="91.3" y="251.8" width="8.4" height="8.4" rx="8" fill="#ffffff" opacity="0.85"/><rect x="103.7" y="251.8" width="8.4" height="8.4" rx="8" fill="#ffffff" opacity="0.85"/><rect x="116.0" y="251.8" width="8.4" height="8.4" rx="8" fill="#ffffff" opacity="0.85"/><rect x="128.4" y="251.8" width="8.4" height="8.4" rx="8" fill="#ffffff" opacity="0.85"/><rect x="140.7" y="251.8" width="8.4" height="8.4" rx="8" fill="#ffffff" opacity="0.85"/><rect x="153.1" y="251.8" width="8.4" height="8.4" rx="8" fill="#ffffff" opacity="0.85"/><rect x="165.4" y="251.8" width="8.4" height="8.4" rx="8" fill="#ffffff" opacity="0.85"/><rect x="177.7" y="251.8" width="8.4" height="8.4" rx="8" fill="#ffffff" opacity="0.85"/><rect x="190.1" y="251.8" width="8.4" height="8.4" rx="8" fill="#ffffff" opacity="0.85"/><rect x="202.4" y="251.8" width="8.4" height="8.4" rx="8" fill="#ffffff" opacity="0.85"/><rect x="214.8" y="251.8" width="8.4" height="8.4" rx="8" fill="#ffffff" opacity="0.85"/><rect x="227.1" y="251.8" width="8.4" height="8.4" rx="8" fill="#ffffff" opacity="0.85"/><rect x="239.5" y="251.8" width="8.4" height="8.4" rx="8" fill="#ffffff" opacity="0.85"/><rect x="251.8" y="251.8" width="8.4" height="8.4" rx="8" fill="#ffffff" opacity="0.85"/><rect x="264.1" y="251.8" width="8.4" height="8.4" rx="8" fill="#ffffff" opacity="0.85"/><rect x="276.5" y="251.8" width="8.4" height="8.4" rx="8" fill="#ffffff" opacity="0.85"/><rect x="288.8" y="251.8" width="8.4" height="8.4" rx="8" fill="#ffffff" opacity="0.85"/><rect x="301.2" y="251.8" width="8.4" height="8.4" rx="8" fill="#ffffff" opacity="0.85"/><rect x="313.5" y="251.8" width="8.4" height="8.4" rx="8" fill="#ffffff" opacity="0.85"/><rect x="325.9" y="251.8" width="8.4" height="8.4" rx="8" fill="#ffffff" opacity="0.85"/><rect x="338.2" y="251.8" width="8.4" height="8.4" rx="8" fill="#ffffff" opacity="0.85"/><rect x="350.5" y="251.8" width="8.4" height="8.4" rx="8" fill="#ffffff" opacity="0.85"/><rect x="362.9" y="251.8" width="8.4" height="8.4" rx="8" fill="#ffffff" opacity="0.85"/><rect x="375.2" y="251.8" width="8.4" height="8.4" rx="8" fill="#ffffff" opacity="0.85"/><rect x="387.6" y="251.8" width="8.4" height="8.4" rx="8" fill="#ffffff" opacity="0.85"/><rect x="399.9" y="251.8" width="8.4" height="8.4" rx="8" fill="#ffffff" opacity="0.85"/><rect x="412.3" y="251.8" width="8.4" height="8.4" rx="8" fill="#ffffff" opacity="0.85"/><rect x="424.6" y="251.8" width="8.4" height="8.4" rx="8" fill="#ffffff" opacity="0.85"/><rect x="91.3" y="264.1" width="8.4" height="8.4" rx="8" fill="#ffffff" opacity="0.85"/><rect x="103.7" y="264.1" width="8.4" height="8.4" rx="8" fill="#ffffff" opacity="0.85"/><rect x="128.4" y="264.1" width="8.4" height="8.4" rx="8" fill="#ffffff" opacity="0.85"/><rect x="140.7" y="264.1" width="8.4" height="8.4" rx="8" fill="#ffffff" opacity="0.85"/><rect x="153.1" y="264.1" width="8.4" height="8.4" rx="8" fill="#ffffff" opacity="0.85"/><rect x="190.1" y="264.1" width="8.4" height="8.4" rx="8" fill="#ffffff" opacity="0.85"/><rect x="202.4" y="264.1" width="8.4" height="8.4" rx="8" fill="#ffffff" opacity="0.85"/><rect x="214.8" y="264.1" width="8.4" height="8.4" rx="8" fill="#ffffff" opacity="0.85"/><rect x="227.1" y="264.1" width="8.4" height="8.4" rx="8" fill="#ffffff" opacity="0.85"/><rect x="239.5" y="264.1" width="8.4" height="8.4" rx="8" fill="#ffffff" opacity="0.85"/><rect x="251.8" y="264.1" width="8.4" height="8.4" rx="8" fill="#ffffff" opacity="0.85"/><rect x="264.1" y="264.1" width="8.4" height="8.4" rx="8" fill="#ffffff" opacity="0.85"/><rect x="276.5" y="264.1" width="8.4" height="8.4" rx="8" fill="#ffffff" opacity="0.85"/><rect x="288.8" y="264.1" width="8.4" height="8.4" rx="8" fill="#ffffff" opacity="0.85"/><rect x="325.9" y="264.1" width="8.4" height="8.4" rx="8" fill="#ffffff" opacity="0.85"/><rect x="338.2" y="264.1" width="8.4" height="8.4" rx="8" fill="#ffffff" opacity="0.85"/><rect x="350.5" y="264.1" width="8.4" height="8.4" rx="8" fill="#ffffff" opacity="0.85"/><rect x="362.9" y="264.1" width="8.4" height="8.4" rx="8" fill="#ffffff" opacity="0.85"/><rect x="375.2" y="264.1" width="8.4" height="8.4" rx="8" fill="#ffffff" opacity="0.85"/><rect x="387.6" y="264.1" width="8.4" height="8.4" rx="8" fill="#ffffff" opacity="0.85"/><rect x="399.9" y="264.1" width="8.4" height="8.4" rx="8" fill="#ffffff" opacity="0.85"/><rect x="412.3" y="264.1" width="8.4" height="8.4" rx="8" fill="#ffffff" opacity="0.85"/><rect x="91.3" y="276.5" width="8.4" height="8.4" rx="8" fill="#ffffff" opacity="0.85"/><rect x="128.4" y="276.5" width="8.4" height="8.4" rx="8" fill="#ffffff" opacity="0.85"/><rect x="140.7" y="276.5" width="8.4" height="8.4" rx="8" fill="#ffffff" opacity="0.85"/><rect x="153.1" y="276.5" width="8.4" height="8.4" rx="8" fill="#ffffff" opacity="0.85"/><rect x="190.1" y="276.5" width="8.4" height="8.4" rx="8" fill="#ffffff" opacity="0.85"/><rect x="202.4" y="276.5" width="8.4" height="8.4" rx="8" fill="#ffffff" opacity="0.85"/><rect x="214.8" y="276.5" width="8.4" height="8.4" rx="8" fill="#ffffff" opacity="0.85"/><rect x="227.1" y="276.5" width="8.4" height="8.4" rx="8" fill="#ffffff" opacity="0.85"/><rect x="239.5" y="276.5" width="8.4" height="8.4" rx="8" fill="#ffffff" opacity="0.85"/><rect x="251.8" y="276.5" width="8.4" height="8.4" rx="8" fill="#ffffff" opacity="0.85"/><rect x="264.1" y="276.5" width="8.4" height="8.4" rx="8" fill="#ffffff" opacity="0.85"/><rect x="276.5" y="276.5" width="8.4" height="8.4" rx="8" fill="#ffffff" opacity="0.85"/><rect x="338.2" y="276.5" width="8.4" height="8.4" rx="8" fill="#ffffff" opacity="0.85"/><rect x="350.5" y="276.5" width="8.4" height="8.4" rx="8" fill="#ffffff" opacity="0.85"/><rect x="362.9" y="276.5" width="8.4" height="8.4" rx="8" fill="#ffffff" opacity="0.85"/><rect x="375.2" y="276.5" width="8.4" height="8.4" rx="8" fill="#ffffff" opacity="0.85"/><rect x="387.6" y="276.5" width="8.4" height="8.4" rx="8" fill="#ffffff" opacity="0.85"/><rect x="399.9" y="276.5" width="8.4" height="8.4" rx="8" fill="#ffffff" opacity="0.85"/><rect x="412.3" y="276.5" width="8.4" height="8.4" rx="8" fill="#ffffff" opacity="0.85"/><rect x="140.7" y="288.8" width="8.4" height="8.4" rx="8" fill="#ffffff" opacity="0.85"/><rect x="202.4" y="288.8" width="8.4" height="8.4" rx="8" fill="#ffffff" opacity="0.85"/><rect x="214.8" y="288.8" width="8.4" height="8.4" rx="8" fill="#ffffff" opacity="0.85"/><rect x="227.1" y="288.8" width="8.4" height="8.4" rx="8" fill="#ffffff" opacity="0.85"/><rect x="239.5" y="288.8" width="8.4" height="8.4" rx="8" fill="#ffffff" opacity="0.85"/><rect x="251.8" y="288.8" width="8.4" height="8.4" rx="8" fill="#ffffff" opacity="0.85"/><rect x="264.1" y="288.8" width="8.4" height="8.4" rx="8" fill="#ffffff" opacity="0.85"/><rect x="276.5" y="288.8" width="8.4" height="8.4" rx="8" fill="#ffffff" opacity="0.85"/><rect x="338.2" y="288.8" width="8.4" height="8.4" rx="8" fill="#ffffff" opacity="0.85"/><rect x="350.5" y="288.8" width="8.4" height="8.4" rx="8" fill="#ffffff" opacity="0.85"/><rect x="362.9" y="288.8" width="8.4" height="8.4" rx="8" fill="#ffffff" opacity="0.85"/><rect x="375.2" y="288.8" width="8.4" height="8.4" rx="8" fill="#ffffff" opacity="0.85"/><rect x="387.6" y="288.8" width="8.4" height="8.4" rx="8" fill="#ffffff" opacity="0.85"/><rect x="399.9" y="288.8" width="8.4" height="8.4" rx="8" fill="#ffffff" opacity="0.85"/><rect x="412.3" y="288.8" width="8.4" height="8.4" rx="8" fill="#ffffff" opacity="0.85"/><rect x="202.4" y="301.2" width="8.4" height="8.4" rx="8" fill="#ffffff" opacity="0.85"/><rect x="214.8" y="301.2" width="8.4" height="8.4" rx="8" fill="#ffffff" opacity="0.85"/><rect x="227.1" y="301.2" width="8.4" height="8.4" rx="8" fill="#ffffff" opacity="0.85"/><rect x="239.5" y="301.2" width="8.4" height="8.4" rx="8" fill="#ffffff" opacity="0.85"/><rect x="264.1" y="301.2" width="8.4" height="8.4" rx="8" fill="#ffffff" opacity="0.85"/><rect x="276.5" y="301.2" width="8.4" height="8.4" rx="8" fill="#ffffff" opacity="0.85"/><rect x="338.2" y="301.2" width="8.4" height="8.4" rx="8" fill="#ffffff" opacity="0.85"/><rect x="350.5" y="301.2" width="8.4" height="8.4" rx="8" fill="#ffffff" opacity="0.85"/><rect x="362.9" y="301.2" width="8.4" height="8.4" rx="8" fill="#ffffff" opacity="0.85"/><rect x="387.6" y="301.2" width="8.4" height="8.4" rx="8" fill="#ffffff" opacity="0.85"/><rect x="399.9" y="301.2" width="8.4" height="8.4" rx="8" fill="#ffffff" opacity="0.85"/><rect x="202.4" y="313.5" width="8.4" height="8.4" rx="8" fill="#ffffff" opacity="0.85"/><rect x="214.8" y="313.5" width="8.4" height="8.4" rx="8" fill="#ffffff" opacity="0.85"/><rect x="227.1" y="313.5" width="8.4" height="8.4" rx="8" fill="#ffffff" opacity="0.85"/><rect x="239.5" y="313.5" width="8.4" height="8.4" rx="8" fill="#ffffff" opacity="0.85"/><rect x="264.1" y="313.5" width="8.4" height="8.4" rx="8" fill="#ffffff" opacity="0.85"/><rect x="350.5" y="313.5" width="8.4" height="8.4" rx="8" fill="#ffffff" opacity="0.85"/><rect x="399.9" y="313.5" width="8.4" height="8.4" rx="8" fill="#ffffff" opacity="0.85"/><rect x="202.4" y="325.9" width="8.4" height="8.4" rx="8" fill="#ffffff" opacity="0.85"/><rect x="214.8" y="325.9" width="8.4" height="8.4" rx="8" fill="#ffffff" opacity="0.85"/><rect x="227.1" y="325.9" width="8.4" height="8.4" rx="8" fill="#ffffff" opacity="0.85"/><rect x="214.8" y="338.2" width="8.4" height="8.4" rx="8" fill="#ffffff" opacity="0.85"/><rect x="227.1" y="338.2" width="8.4" height="8.4" rx="8" fill="#ffffff" opacity="0.85"/><rect x="214.8" y="350.5" width="8.4" height="8.4" rx="8" fill="#ffffff" opacity="0.85"/><circle cx="420.2" cy="83.2" r="23.8" fill="#ef4444" opacity="0.15"/><circle cx="420.2" cy="83.2" r="10.8" fill="#ef4444" opacity="0.9"/></svg>